<?xml version="1.0" standalone="no"?> <!DOCTYPE svg PUBLIC "-//W3C//DTD SVG 1.0//EN" "http://www.w3.org/TR/2001/REC-SVG-20010904/DTD/svg10.dtd" > <svg xmlns="http://www.w3.org/2000/svg" width="100%" height="100%">
<defs >
<font id="montserratregular" horiz-adv-x="607" ><font-face
    font-family="Montserrat"
    units-per-em="1000"
    panose-1="2 0 5 5 0 0 0 2 0 4"
    ascent="968"
    descent="-251"
    alphabetic="0" />
<missing-glyph horiz-adv-x="206" />
<glyph unicode=" " glyph-name="space" horiz-adv-x="206" />
<glyph unicode="!" glyph-name="exclam" horiz-adv-x="349" d="M104 716H244V587L214 226H134L104 587V716ZM144 -8T122 14T100 66T122 119T174 141T227 119T249 67T227 14T175 -8Z" />
<glyph unicode="&quot;" glyph-name="quotedbl" horiz-adv-x="324" d="M54 453V699H132V453H54ZM196 453V699H274V453H196Z" />
<glyph unicode="#" glyph-name="numbersign" horiz-adv-x="827" d="M715 436H607L578 270H701L679 160H560L532 0H421L449 160H302L274 0H162L190 160H87L109 270H209L238 436H124L146 546H257L286 716H397L368 546H515L544 716H656L625 546H737L715 436ZM497
436H350L320 270H467L497 436ZM715 436L737 546H625L656 716H544L515 546H368L397 716H286L257 546H146L124 436H715ZM350 436H497H350Z" />
<glyph unicode="$" glyph-name="dollar" horiz-adv-x="698" d="M326 -72V1Q189 15 80 110L153 197Q237 124 326 110V304Q213 331 161 375T108 505T168 647T326 707V757H390V706Q500 698 598 631L533 539Q467 586 390 597V409H393Q508 382 562 336T616 203T554
60T390 0V-72H326ZM438 112T466 135T494 193T472 248T390 287V107Q438 112 466 135ZM281 596T256 574T230 518T250 465T326 427V600Q281 596 256 574Z" />
<glyph unicode="%" glyph-name="percent" horiz-adv-x="879" d="M392 623T392 557T349 444T241 397T133 443T90 556T133 669T241 716T349 670ZM756 699L244 0H115L627 699H756ZM298 525T298 555T281 605T240 626T199 606T183 555T200 505T241 484T282 504ZM789
218T789 152T746 39T638 -8T530 38T487 151T530 264T638 311T746 265ZM697 118T697 148T680 198T639 219T598 199T582 148T599 98T640 77T681 97Z" />
<glyph unicode="&amp;" glyph-name="ampersand" horiz-adv-x="740" d="M545 330L627 272Q601 203 568 151Q609 110 670 52L595 -18L503 73Q415 -8 283 -8Q185 -8 116 46T47 196Q47 309 211 397Q170 444 154 474T137 550Q137 630 196 673T335 716T471 675T527 560Q527
461 367 373Q447 275 497 223Q528 269 545 330ZM158 146T196 118T297 89T431 147Q330 253 271 325Q158 264 158 191Q158 146 196 118ZM301 627T275 606T248 557T261 507T308 444Q421 500 421 548Q421 588 395 607T335 627Z" />
<glyph unicode="&apos;" glyph-name="quotesingle" horiz-adv-x="178" d="M54 453V699H132V453H54Z" />
<glyph unicode="(" glyph-name="parenleft" horiz-adv-x="314" d="M159 427T159 312T199 73T297 -133H178Q129 -65 89 61T48 312T88 563T178 757H297Q239 676 199 552Z" />
<glyph unicode=")" glyph-name="parenright" horiz-adv-x="304" d="M167 197T167 312T127 551T29 757H148Q197 689 237 563T278 312T238 61T148 -133H29Q87 -52 127 72Z" />
<glyph unicode="*" glyph-name="asterisk" horiz-adv-x="450" d="M346 430L251 494L259 380H191L199 495L104 431L70 489L172 540L70 590L104 649L198 586L191 699H259L252 586L346 648L380 590L277 540L380 489L346 430Z" />
<glyph unicode="+" glyph-name="plus" horiz-adv-x="583" d="M249 587H347V398H534V304H347V115H249V304H62V398H249V587Z" />
<glyph unicode="," glyph-name="comma" horiz-adv-x="224" d="M49 -105L86 -1Q45 18 45 65Q45 97 67 118T119 140T171 119T194 67T167 -6L107 -105H49Z" />
<glyph unicode="-" glyph-name="hyphen" horiz-adv-x="452" d="M50 246V351H382V246H50Z" />
<glyph unicode="." glyph-name="period" horiz-adv-x="209" d="M30 36T30 67T51 119T104 141T157 120T179 67T157 14T104 -8T52 14Z" />
<glyph unicode="/" glyph-name="slash" horiz-adv-x="622" d="M460 811H560L127 -117H27L460 811Z" />
<glyph unicode="0" glyph-name="zero" horiz-adv-x="615" d="M137 471T137 354T178 165T308 93T436 164T477 354T437 543T308 615T179 543ZM23 189T23 354T94 617T308 716T522 618T593 354T522 91T308 -8T94 90Z" />
<glyph unicode="1" glyph-name="one" horiz-adv-x="528" d="M92 699H346V0H234V594H92V699Z" />
<glyph unicode="2" glyph-name="two" horiz-adv-x="615" d="M351 385T381 426T411 509T379 580T298 610Q212 610 155 522L60 577Q106 646 161 681T304 716T458 661T524 509Q524 455 496 406T393 280L229 113H546V0H68V100L280 313Q351 385 381 426Z" />
<glyph unicode="3" glyph-name="three" horiz-adv-x="639" d="M347 594H94V699H503V607L334 418Q430 415 484 358T538 220Q538 113 466 52T279 -9T56 64L106 159Q192 99 286 99Q347 99 386 127T426 209T382 295T260 327Q221 327 185 316V406L347 594Z" />
<glyph unicode="4" glyph-name="four" horiz-adv-x="615" d="M183 283H350V411H462V283H546V176H462V0H350V176H50V280L307 699H436L183 283Z" />
<glyph unicode="5" glyph-name="five" horiz-adv-x="615" d="M501 700V593H206V421Q250 445 306 445Q404 445 475 386T546 226T472 59T290 -8Q149 -8 65 86L128 172Q136 164 149 153T205 124T297 105T388 135T429 222T386 311T276 343T149 310L99 364V700H501Z" />
<glyph unicode="6" glyph-name="six" horiz-adv-x="615" d="M532 641L473 554Q450 574 412 590T343 606Q250 606 206 543T161 373Q186 401 233 425T337 450Q431 450 494 388T558 222T490 55T317 -8Q149 -8 86 142Q49 228 49 336T72 516T135 630Q213 712 326 712T532
641ZM261 346T221 313T180 226T219 134T317 95T415 129T454 217T418 308T322 346Z" />
<glyph unicode="7" glyph-name="seven" horiz-adv-x="615" d="M65 498V699H557V594L261 0H131L420 592H172V498H65Z" />
<glyph unicode="8" glyph-name="eight" horiz-adv-x="615" d="M204 713T305 713T473 660T540 527T465 384Q566 320 566 204Q566 114 494 53T305 -8T116 53T44 204Q44 320 145 384Q70 446 70 526T137 660ZM253 94T305 94T403 123T449 208T405 293T305 323T205 293T161
208T207 124ZM254 411T305 411T393 441T431 516T394 591T305 621T217 591T179 517T216 442Z" />
<glyph unicode="9" glyph-name="nine" horiz-adv-x="615" d="M75 63L134 150Q157 130 195 114T264 98Q357 98 401 161T446 331Q421 303 374 279T270 254Q176 254 113 316T49 482T117 649T290 712Q458 712 522 562Q558 476 558 368T535 188T472 74Q394 -8 281 -8T75
63ZM346 358T386 391T427 478T388 570T291 609T194 575T156 486T190 395T285 358Z" />
<glyph unicode=":" glyph-name="colon" horiz-adv-x="209" d="M30 36T30 67T51 119T104 141T157 120T179 67T157 14T104 -8T52 14ZM30 281T30 312T51 364T104 386T157 365T179 312T157 259T104 237T52 259Z" />
<glyph unicode=";" glyph-name="semicolon" horiz-adv-x="225" d="M49 -105L86 -1Q45 20 45 66Q45 98 67 119T119 141T172 120T195 69T168 -6L107 -105H49ZM45 281T45 312T66 364T119 386T172 365T194 312T172 259T119 237T67 259Z" />
<glyph unicode="&lt;" glyph-name="less" horiz-adv-x="638" d="M75 334V460L546 678V564L194 405V394L546 231V117L75 334Z" />
<glyph unicode="=" glyph-name="equal" horiz-adv-x="599" d="M45 540H549V432H45V540ZM45 333H549V225H45V333Z" />
<glyph unicode="&gt;" glyph-name="greater" horiz-adv-x="664" d="M566 460V334L95 117V231L447 394V405L95 564V678L566 460Z" />
<glyph unicode="?" glyph-name="question" horiz-adv-x="519" d="M316 217H203V278Q203 318 212 337T254 389L327 462Q350 487 350 524T326 585T264 610T201 587T171 524H50Q60 613 119 663T268 714T413 666T469 530Q469 470 436 430Q417 406 407 396T381 371T353
344T334 324Q316 302 316 262V217ZM230 -5T207 16T184 68T206 121T260 143T315 122T338 70T316 17T262 -5Z" />
<glyph unicode="@" glyph-name="at" horiz-adv-x="1036" d="M689 -22L711 -59Q676 -89 618 -107T505 -126Q337 -126 224 -14T110 266T229 553T516 673T800 554T916 262Q916 154 875 88T766 21Q717 21 688 54T657 150Q601 21 478 21Q392 21 327 90T261 265T323
443T487 515Q533 515 574 491T633 434V501H729V152Q729 82 784 82Q815 82 840 127T866 247Q866 407 770 518T521 629T261 522T154 266T255 18T505 -82Q625 -82 689 -22ZM634 334T596 376T497 418T399 375T362 270T398 161T498 114T597 159T634 269Z" />
<glyph unicode="A" glyph-name="A" horiz-adv-x="770" d="M442 699L750 0H620L549 159H214L146 0H20L328 699H442ZM502 268L382 537L263 268H502Z" />
<glyph unicode="B" glyph-name="B" horiz-adv-x="721" d="M406 0H100V699H372Q443 699 494 682T572 636Q619 582 619 514Q619 432 566 392Q548 378 541 375T516 363Q581 349 619 305T658 194Q658 121 608 65Q550 0 406 0ZM218 409H368Q496 409 496 496Q496 546
465 568T369 590H218V409ZM218 109H403Q468 109 502 129T537 207Q537 300 388 300H218V109Z" />
<glyph unicode="C" glyph-name="C" horiz-adv-x="725" d="M412 107Q473 107 517 127T609 193L685 115Q574 -8 416 -8T153 94T48 352T154 612T423 716T695 596L620 514Q570 562 526 581T421 600Q315 600 243 532T171 357T242 179T412 107Z" />
<glyph unicode="D" glyph-name="D" horiz-adv-x="790" d="M538 699T639 608T740 353T642 95T342 0H110V699H350Q538 699 639 608ZM621 350Q621 590 346 590H228V111H359Q486 111 553 171T621 350Z" />
<glyph unicode="E" glyph-name="E" horiz-adv-x="683" d="M601 699V588H228V403H563V298H228V111H613V0H110V699H601Z" />
<glyph unicode="F" glyph-name="F" horiz-adv-x="621" d="M576 699L575 589H228V397H558V288H228V0H110V699H576Z" />
<glyph unicode="G" glyph-name="G" horiz-adv-x="756" d="M577 340H695V101Q596 -8 412 -8Q257 -8 153 94T48 352T154 612T412 716T663 628L600 538Q559 573 518 586T421 600Q315 600 243 532T171 352T241 173T410 105T577 148V340Z" />
<glyph unicode="H" glyph-name="H" horiz-adv-x="803" d="M110 0V699H228V396H575V699H693V0H575V286H228V0H110Z" />
<glyph unicode="I" glyph-name="I" horiz-adv-x="338" d="M110 699H228V0H110V699Z" />
<glyph unicode="J" glyph-name="J" horiz-adv-x="578" d="M153 593V699H493V238Q493 116 431 55T272 -6Q150 -6 64 80L131 173Q199 108 264 108Q310 108 342 139T375 232V593H153Z" />
<glyph unicode="K" glyph-name="K" horiz-adv-x="732" d="M110 699H228V358L548 699H698L417 393L702 0H562L330 306L228 196V0H110V699Z" />
<glyph unicode="L" glyph-name="L" horiz-adv-x="577" d="M110 0V699H228V112H547V0H110Z" />
<glyph unicode="M" glyph-name="M" horiz-adv-x="1009" d="M471 61L228 546V0H110V699H294L505 260L716 699H899V0H781V546L537 61H471Z" />
<glyph unicode="N" glyph-name="N" horiz-adv-x="862" d="M634 177V699H752V0H624L228 510V0H110V699H228L634 177Z" />
<glyph unicode="O" glyph-name="O" horiz-adv-x="832" d="M520 608T416 608T241 534T169 355T240 175T416 101T591 175T663 354T592 534ZM572 -7T416 -7T154 96T48 354T154 612T416 716T678 613T784 355T678 97Z" />
<glyph unicode="P" glyph-name="P" horiz-adv-x="700" d="M509 699T582 638T655 450T581 264T352 205H228V0H110V699H350Q509 699 582 638ZM463 312T498 349T534 459T489 562T348 592H228V312H365Q463 312 498 349Z" />
<glyph unicode="Q" glyph-name="Q" horiz-adv-x="851" d="M431 -6L416 -7Q260 -7 154 96T48 354T154 612T416 716T678 613T784 355Q784 238 721 148T553 17Q587 -28 639 -28Q677 -28 713 -8T769 44L836 -49Q749 -141 637 -141Q573 -141 514 -105T431 -6ZM520 608T416
608T241 534T169 355T240 175T416 101T591 175T663 354T592 534Z" />
<glyph unicode="R" glyph-name="R" horiz-adv-x="764" d="M668 472Q668 299 517 254L700 0H550L383 235H228V0H110V699H370Q530 699 599 645T668 472ZM475 342T511 373T547 472T510 566T378 592H228V342H375Q475 342 511 373Z" />
<glyph unicode="S" glyph-name="S" horiz-adv-x="662" d="M273 607T242 583T211 519T244 458T384 409T546 336T601 198T532 49T351 -8Q187 -8 60 105L134 194Q240 102 354 102Q411 102 444 126T478 191T447 254T338 295T221 329T150 370Q88 417 88 510T155 659T327
716Q469 716 583 637L517 543Q431 607 325 607Q273 607 242 583Z" />
<glyph unicode="T" glyph-name="T" horiz-adv-x="652" d="M385 591V0H267V591H55V699H597V591H385Z" />
<glyph unicode="U" glyph-name="U" horiz-adv-x="770" d="M680 700V303Q680 152 597 71T388 -11T176 70T90 297V700H209V313Q209 215 256 158T386 100T515 155T562 308V700H680Z" />
<glyph unicode="V" glyph-name="V" horiz-adv-x="770" d="M172 699L388 171L601 699H730L449 0H322L40 699H172Z" />
<glyph unicode="W" glyph-name="W" horiz-adv-x="1044" d="M313 196L469 699H575L732 196L907 699H1034L790 1H673L526 479H518L371 1H254L10 699H137L313 196Z" />
<glyph unicode="X" glyph-name="X" horiz-adv-x="740" d="M524 699H672L450 363L691 0H541L368 263H364L192 0H45L285 359L62 699H208L364 463H369L524 699Z" />
<glyph unicode="Y" glyph-name="Y" horiz-adv-x="690" d="M345 381L536 699H665L403 276V0H285V276L25 699H154L345 381Z" />
<glyph unicode="Z" glyph-name="Z" horiz-adv-x="697" d="M467 591H73V699H631V607L225 112V109H637V0H60V91L467 588V591Z" />
<glyph unicode="[" glyph-name="bracketleft" horiz-adv-x="343" d="M303 757V673H165V-56H303V-140H77V757H303Z" />
<glyph unicode="\" glyph-name="backslash" horiz-adv-x="748" d="M113 757H213L577 0H477L113 757Z" />
<glyph unicode="]" glyph-name="bracketright" horiz-adv-x="249" d="M-40 673V757H186V-140H-40V-56H98V673H-40Z" />
<glyph unicode="^" glyph-name="asciicircum" horiz-adv-x="394" d="M273 742L196 825L119 742H22L144 898H246L367 742H273Z" />
<glyph unicode="_" glyph-name="underscore" horiz-adv-x="628" d="M23 -138V-81H601V-138H23Z" />
<glyph unicode="`" glyph-name="grave" horiz-adv-x="833" d="M540 600H438L316 696L434 745L540 600Z" />
<glyph unicode="a" glyph-name="a" horiz-adv-x="601" d="M531 0H429V71Q363 -8 252 -8Q169 -8 115 39T60 164T118 282T275 321H420V341Q420 447 302 447Q228 447 148 393L98 463Q195 540 318 540Q412 540 471 493T531 343V0ZM419 198V243H293Q172 243 172 167Q172
128 202 108T285 87T379 117T419 198Z" />
<glyph unicode="b" glyph-name="b" horiz-adv-x="684" d="M482 540T558 466T634 269T559 69T383 -8T202 80V0H90V742H202V439Q268 540 375 540ZM200 189T246 141T358 92T473 140T522 264T474 391T359 442T246 392T200 265Z" />
<glyph unicode="c" glyph-name="c" horiz-adv-x="584" d="M554 90Q457 -8 330 -8Q219 -8 139 67T59 265T142 463T346 540T549 457L483 376Q414 436 344 436T223 390T171 270T221 145T347 94T488 162L554 90Z" />
<glyph unicode="d" glyph-name="d" horiz-adv-x="681" d="M197 -8T122 68T47 268T124 466T307 540T479 450V742H591V0H479V80Q417 -8 298 -8Q197 -8 122 68ZM159 187T208 139T323 91T435 139T481 264T435 391T322 442T207 391T159 264Z" />
<glyph unicode="e" glyph-name="e" horiz-adv-x="635" d="M589 217H172Q176 159 225 124T337 88Q437 88 489 151L553 81Q467 -8 329 -8Q217 -8 139 66T60 266T140 466T328 540T513 475T589 294V217ZM172 305H477Q477 372 435 408T332 444T221 407T172 305Z" />
<glyph unicode="f" glyph-name="f" horiz-adv-x="435" d="M244 576V532H384V442H244V0H132V442H65V532H132V573Q132 657 182 706T304 756T435 703L389 624Q356 659 320 659T264 637T244 576Z" />
<glyph unicode="g" glyph-name="g" horiz-adv-x="655" d="M565 532V68Q565 -73 489 -143T292 -214T75 -139L128 -54Q206 -113 285 -113T411 -72T458 59V127Q433 80 387 52T282 24Q176 24 108 98T40 282T108 466T281 540T453 453V532H565ZM150 221T190 174T299
126T410 172T453 286T410 402T299 450T191 401T150 287Z" />
<glyph unicode="h" glyph-name="h" horiz-adv-x="656" d="M202 288V0H90V741H202V435Q226 484 274 512T379 540Q469 540 524 485T580 326V0H468V292Q468 439 346 439Q288 439 245 401T202 288Z" />
<glyph unicode="i" glyph-name="i" horiz-adv-x="329" d="M221 0H109V532H221V0ZM95 659T95 688T116 737T166 757T216 737T236 688T215 638T166 616T116 637Z" />
<glyph unicode="j" glyph-name="j" horiz-adv-x="366" d="M129 659T129 688T150 737T200 757T250 737T270 688T249 638T200 616T150 637ZM144 -25V532H256V-29Q256 -113 206 -162T84 -212T-47 -159L5 -75Q39 -108 73 -108T126 -86T144 -25Z" />
<glyph unicode="k" glyph-name="k" horiz-adv-x="617" d="M360 321L577 0H441L283 233L202 151V0H90V742H202V306L418 532H562L360 321Z" />
<glyph unicode="l" glyph-name="l" horiz-adv-x="292" d="M202 0H90V742H202V0Z" />
<glyph unicode="m" glyph-name="m" horiz-adv-x="1033" d="M202 288V0H90V532H202V435Q226 484 274 512T379 540Q505 540 550 436Q629 540 747 540Q837 540 892 485T948 326V0H836V292Q836 439 714 439Q657 439 615 403T570 296V0H458V292Q458 368 431 403T346
439T245 401T202 288Z" />
<glyph unicode="n" glyph-name="n" horiz-adv-x="656" d="M202 288V0H90V532H202V435Q229 484 276 512T379 540Q469 540 524 485T580 326V0H468V292Q468 439 346 439Q288 439 245 401T202 288Z" />
<glyph unicode="o" glyph-name="o" horiz-adv-x="663" d="M257 92T330 92T450 140T498 266T451 391T330 440T210 392T162 266T209 141ZM450 -8T330 -8T130 71T50 266T130 460T330 540T530 461T610 266T530 72Z" />
<glyph unicode="p" glyph-name="p" horiz-adv-x="684" d="M482 540T558 466T634 269T559 69T383 -8T202 80V-194H90V532H202V439Q268 540 375 540ZM200 189T246 141T358 92T473 140T522 264T474 391T359 442T246 392T200 265Z" />
<glyph unicode="q" glyph-name="q" horiz-adv-x="680" d="M197 -8T122 69T46 269T122 466T305 540T478 439V532H590V-194H478V80Q398 -8 298 -8ZM158 188T207 140T322 92T434 140T480 265T434 391T321 442T206 392T158 265Z" />
<glyph unicode="r" glyph-name="r" horiz-adv-x="424" d="M374 540L375 427Q372 427 369 427Q286 427 244 373T202 228V0H90V532H202V425Q229 475 275 507T374 540Z" />
<glyph unicode="s" glyph-name="s" horiz-adv-x="530" d="M475 83T420 38T279 -8Q221 -8 159 13T48 72L102 159Q195 89 282 89Q320 89 342 106T364 151Q364 191 258 223Q250 226 246 227Q80 272 80 377Q80 451 137 495T287 540T461 486L419 403Q354 446 278 446Q238
446 213 432T188 388Q188 362 214 350Q232 341 264 333T322 317T370 299T421 271Q475 235 475 159Z" />
<glyph unicode="t" glyph-name="t" horiz-adv-x="425" d="M234 442V180Q234 142 254 120T310 97T379 132L425 53Q366 0 295 0T173 49T122 183V442H55V532H122V699H234V532H374V442H234Z" />
<glyph unicode="u" glyph-name="u" horiz-adv-x="654" d="M451 244V532H563V0H451V97Q424 48 377 20T274 -8Q184 -8 129 47T73 206V532H185V240Q185 93 307 93Q365 93 408 131T451 244Z" />
<glyph unicode="v" glyph-name="v" horiz-adv-x="602" d="M237 0L23 532H139L301 130L463 532H579L365 0H237Z" />
<glyph unicode="w" glyph-name="w" horiz-adv-x="876" d="M312 0H184L0 532H116L248 130L380 532H496L628 130L760 532H876L692 0H564L438 364L312 0Z" />
<glyph unicode="x" glyph-name="x" horiz-adv-x="618" d="M194 532L308 357L426 532H559L373 272L567 0H429L302 177L178 0H47L236 271L57 532H194Z" />
<glyph unicode="y" glyph-name="y" horiz-adv-x="587" d="M580 532L322 -100Q299 -152 256 -182T161 -212Q88 -212 29 -159L80 -68Q115 -101 152 -101T213 -74T237 -15Q237 -1 22 532H142L301 140L460 532H580Z" />
<glyph unicode="z" glyph-name="z" horiz-adv-x="532" d="M331 434H60V530H476V429L177 97H492V0H40V109L331 434Z" />
<glyph unicode="{" glyph-name="braceleft" horiz-adv-x="305" d="M268 668Q206 668 206 611V391Q206 321 140 309Q206 298 206 228V-7Q206 -33 220 -43T276 -53V-146H242Q106 -146 106 -14V202Q106 235 94 248T56 262H32V355H56Q82 355 94 369T106 417V628Q106
760 242 760H276V667Q273 668 268 668Z" />
<glyph unicode="|" glyph-name="bar" horiz-adv-x="130" d="M23 -153V782H106V-153H23Z" />
<glyph unicode="}" glyph-name="braceright" horiz-adv-x="306" d="M56 -146H22V-53Q63 -53 77 -43T92 -7V228Q92 298 158 309Q92 321 92 391V611Q92 642 76 655T43 669L40 668L22 667V760H56Q192 760 192 628V417Q192 383 204 369T242 355H266V262H242Q216 262
204 249T192 202V-14Q192 -146 56 -146Z" />
<glyph unicode="~" glyph-name="asciitilde" horiz-adv-x="634" d="M310 684Q305 687 280 702Q226 735 202 735T166 720T147 667L53 701Q63 771 101 809T191 847T310 810Q315 807 340 792Q394 759 418 759T454 774T473 827L567 793Q557 723 519 685T429 647T310 684Z" />
</font>
</defs>
</svg>
